<svg xmlns="http://www.w3.org/2000/svg" xmlns:xlink="http://www.w3.org/1999/xlink" version="1.1" x="0px" y="0px" viewBox="20.933 5.013 58.565 100" enable-background="new 20.933 5.013 58.565 100" xml:space="preserve"><path d="M46.684,66.067c-3.959,7.107-8.834,8.599-12.227,8.599c-0.671,0-1.344-0.063-2.016-0.179  c-1.309,6.64-3.593,18.531-4.249,23.816c-0.339,2.733,0.413,5.941,3.11,6.492c0.336,0.068,0.671,0.102,1.002,0.102  c2.32,0,3.85-1.983,4.299-4.351c1.325-6.974,5.359-26.587,8.098-27.603c2.062-0.765,9.707,8.521,9.971,9.471  c0.47,2.225-2.602,11.54-3.552,16.886c-0.48,2.711,1.028,5.153,3.738,5.636c0.297,0.052,0.59,0.076,0.879,0.076  c2.37,0,3.988-1.864,4.418-4.278c0.388-2.173,4.737-15.103,3.636-20.342c-0.591-2.807-2.665-5.774-5.067-9.214  c-1.386-1.983-4.873-4.742-5.173-5.998c-0.015-0.464-0.113-0.903-0.247-1.327L53.2,59.619c-0.055,0.022-0.111,0.047-0.164,0.069  C51.159,60.474,49.386,61.217,46.684,66.067z"></path><path d="M42.288,22.54c2.628,0,9.641,0.876,9.641-9.638c0-3.506-3.506-7.889-9.641-7.889c-5.327,0-7.886,4.311-7.886,9.638  C34.402,19.912,39.658,22.54,42.288,22.54z"></path><path d="M47.588,41.173c1.875-1.653,5.403-4.77,8.923-7.912c-1.671-3.278-3.841-6.167-7.333-7.149  c-0.198-0.075-0.397-0.148-0.612-0.192c-1.928-0.398-13.444-1.669-18.037,2.298c-3.707,3.202-9.273,13.883-7.146,20.079  c0.023,0.068,0.061,0.138,0.087,0.206c0.223,0.575,0.555,1.159,0.972,1.745c1.972,2.77,5.817,5.568,8.938,7.555  c0.698,0.444,1.363,0.853,1.958,1.204c0.629,0.374,1.32,0.554,2.002,0.559c1.351-0.011,2.663-0.706,3.403-1.952  c1.124-1.894,0.5-4.341-1.394-5.464c-2.238-1.329-4.412-2.794-5.968-4.02c-0.474-0.373-0.888-0.724-1.23-1.041  c-0.431-0.4-0.751-0.752-0.916-1.025l0.001-0.001c-0.14-0.16-0.257-0.309-0.332-0.433c-0.012-0.044-0.013-0.105-0.021-0.155  c-0.238-1.471,0.951-5.135,2.497-7.995v6.714c1.145-0.778,1.552-1.519,2.101-2.528c0.657-1.21,1.558-2.867,3.624-5.083  c2.039-2.188,4.107-3.552,5.954-3.976c0.404-0.092,0.8-0.156,1.179-0.156c0.106,0,0.208,0.011,0.311,0.019  c1.236,0.089,2.244,0.701,2.789,1.723c0.457,0.856,0.93,2.726-1.023,5.633C47.916,40.42,47.702,40.86,47.588,41.173z"></path><path d="M69.8,35.239c-0.263-0.354-0.622-0.678-1.097-0.938c-0.047-0.026-0.097-0.049-0.144-0.073  c-0.118-0.062-0.242-0.112-0.366-0.162c-0.255-0.103-0.522-0.18-0.803-0.229l-0.001,0.001c-0.077-0.017-0.146-0.037-0.227-0.051  c-0.157-0.019-0.312-0.027-0.466-0.027c-1.117,0-2.137,0.481-2.87,1.25c-0.387,0.515-0.654,1.16-0.741,1.92  c-0.08,0.697-0.057,0.6-0.125,1.246c0,0.011-0.002,0.02-0.004,0.03c-0.342,3.225-0.931,4.559-1.656,4.975  c-0.303-0.318-0.651-0.885-1.008-1.565c-0.012-0.022-0.022-0.041-0.034-0.064c-0.076-0.146-0.152-0.304-0.229-0.458l-5.833,5.75  c0.065,0.1,0.134,0.199,0.202,0.298c0.448-0.185,0.933-0.33,1.479-0.332c2.639,0,3.52,1.668,3.775,2.385  c0.222,0.619,0.269,1.3,0.2,2c0.377,0.068,0.763,0.113,1.169,0.113c0.857,0,1.785-0.162,2.784-0.521  c5.592-2.001,6.16-7.41,6.709-12.641C70.557,37.754,70.638,36.363,69.8,35.239z"></path><path d="M27.279,69.962c2.167,1.665,4.689,2.713,7.268,2.713c3.665,0,7.443-2.114,10.485-7.576  c4.434-7.959,7.038-6.244,10.262-8.884c1.429-1.169,4.885-7.411,0.674-7.411c-0.006,0-0.012,0-0.018,0  c-0.895,0.004-2.132,1.184-3.523,1.184c-0.801,0-1.653-0.391-2.521-1.623l10.886-10.731c0.021-0.194,0.039-0.373,0.062-0.57  c0.347-3.001,2.871-5.265,5.883-5.292l3.808-3.754c0.57,0.076,1.082,0.118,1.543,0.118c2.54,0,3.559-1.272,4.487-5.164  c0.572-2.392,4.85-2.274,1.891-6.235c-0.096-0.127-0.281-0.185-0.537-0.185c-0.363,0-0.867,0.116-1.459,0.318l-0.522-1.007  c0.07-0.105,0.133-0.219,0.166-0.351c0.149-0.61-0.225-1.229-0.836-1.376c-0.091-0.022-0.183-0.033-0.273-0.033  c-0.513,0-0.979,0.349-1.105,0.868c-0.149,0.612,0.225,1.229,0.836,1.378c0.064,0.016,0.129,0.021,0.191,0.021  c0.052,0,0.104-0.004,0.157-0.008l0.452,0.869c-0.501,0.211-1.03,0.461-1.581,0.745l-0.681-0.896  c0.052-0.118,0.094-0.239,0.104-0.375c0.043-0.628-0.43-1.171-1.058-1.215c-0.028-0.002-0.056-0.003-0.084-0.003  c-0.591,0-1.092,0.46-1.132,1.06c-0.044,0.628,0.428,1.172,1.056,1.216c0.017,0.001,0.033,0.002,0.05,0.002  c0.103,0,0.201-0.022,0.297-0.048l0.56,0.737c-0.537,0.302-1.076,0.621-1.6,0.958l-0.703-0.823c0.045-0.12,0.079-0.243,0.081-0.379  c0.008-0.63-0.494-1.146-1.125-1.154c-0.004,0-0.008,0-0.013,0c-0.623,0-1.132,0.498-1.14,1.125  c-0.01,0.629,0.494,1.146,1.123,1.155c0.123,0,0.233-0.032,0.344-0.065l0.597,0.697c-0.598,0.416-1.148,0.837-1.631,1.253  l-0.542-0.634c0.045-0.119,0.08-0.244,0.082-0.379c0.009-0.629-0.495-1.147-1.126-1.155c-0.004,0-0.01,0-0.014,0  c-0.623,0-1.131,0.501-1.139,1.125c-0.009,0.631,0.494,1.146,1.124,1.154c0.002,0,0.004,0,0.005,0c0.12,0,0.23-0.031,0.338-0.064  l0.544,0.635c-0.292,0.301-0.547,0.594-0.717,0.865c-0.641,1.013,1.13,2.135-0.657,3.838c-4.531,4.314-19.276,17.276-19.276,17.276  s-3.991-0.524-0.871-5.167c1.744-2.596,1.254-4.269-0.422-4.269c-1.323-0.001-3.386,1.042-5.674,3.497  c-4.083,4.379-3.055,6.101-6.44,8.144c1.434,1.185,3.68,2.828,6.243,4.35c1.374,0.815,2.348,2.117,2.744,3.665  c0.395,1.548,0.164,3.157-0.652,4.531c-1.073,1.808-3.045,2.93-5.148,2.93c-1.071,0-2.126-0.29-3.049-0.839  c-4-2.372-8.8-5.683-11.349-9.115C18.786,56.474,21.411,65.455,27.279,69.962z"></path></svg>