<svg xmlns="http://www.w3.org/2000/svg" viewBox="0 0 64 80" x="0px" y="0px"><g><path d="M30,23v-4a2,2,0,1,0,0,4Z"/><path d="M48,24V18.038L47.967,18H32.033L32,18.038V25a7.979,7.979,0,0,0,3.556,6.648l.124.078a8.078,8.078,0,0,0,8.762-.076A7.982,7.982,0,0,0,48,25ZM35.5,22A1.5,1.5,0,1,1,37,20.5,1.5,1.5,0,0,1,35.5,22Zm3.361,6H37V26h1.861a7.445,7.445,0,0,0,3.635-.864L43.5,26.864A9.353,9.353,0,0,1,38.861,28ZM44.5,22A1.5,1.5,0,1,1,46,20.5,1.5,1.5,0,0,1,44.5,22Z"/><polygon points="17.279 13 18 10.838 18 4 13 4 13 10.838 13.721 13 17.279 13"/><path d="M17,35.226V15H14V35.226A5.657,5.657,0,0,1,17,35.226Z"/><path d="M50,19v4a2,2,0,0,0,0-4Z"/><path d="M48,11.41v-.021q0-.66-.034-1.324c0-.022,0-.043,0-.065H32.038c0,.022,0,.044,0,.066-.022.441-.033.883-.034,1.323V12H48Z"/><path d="M31,16H49a3.006,3.006,0,0,0,2.829-2H28.171A3.006,3.006,0,0,0,31,16Z"/><path d="M47.613,6.793A3.329,3.329,0,0,0,44.32,4a3.357,3.357,0,0,0-2.781,1.489,1.853,1.853,0,0,1-3.076,0A3.359,3.359,0,0,0,35.68,4a3.33,3.33,0,0,0-3.292,2.79c-.067.4-.1.806-.154,1.21H47.766C47.716,7.6,47.679,7.19,47.613,6.793Z"/><path d="M40,35a9.941,9.941,0,0,1-4-.847V36.17a2,2,0,0,1-1.637,1.963l-1.188.224.383,1.576a6.629,6.629,0,0,0,12.884,0l.383-1.576-1.19-.224A2,2,0,0,1,44,36.17V34.147A9.946,9.946,0,0,1,40,35Z"/><path d="M18,57V56H11a1,1,0,0,1-1-1V51a1,1,0,0,1,1-1h7V45.4a5.495,5.495,0,0,1-6-9.131V29.151a5.078,5.078,0,0,0-3.991,4.606,4.891,4.891,0,0,0,.041.926,12.5,12.5,0,0,1-2.032,9.29A9.98,9.98,0,0,0,4,50.3,10.262,10.262,0,0,0,14.35,60h2.3a10.328,10.328,0,0,0,1.8-.161A4.013,4.013,0,0,1,18,58Z"/><path d="M22.7,58H20a1.958,1.958,0,0,0,.814,1.608A2.01,2.01,0,0,0,22,60h4a1.006,1.006,0,0,1-.555-.168Z"/><polygon points="28 60 28.017 59.998 26 60 28 60"/><polygon points="53.303 51 60 51 60 49 56.303 49 53.303 51"/><path d="M59.941,43.492c-.005-.031-.013-.062-.018-.093a3.991,3.991,0,0,0-.142-.523c-.025-.069-.05-.137-.078-.2a3.814,3.814,0,0,0-.239-.509h0a3.982,3.982,0,0,0-.377-.54c-.014-.018-.03-.034-.045-.051a4.006,4.006,0,0,0-.914-.786c-.06-.038-.12-.075-.18-.108a3.871,3.871,0,0,0-.511-.245l-.041-.017a4.017,4.017,0,0,0-.67-.186l-7.941-1.466-.4,1.643a8.629,8.629,0,0,1-16.772,0l-.4-1.643-7.941,1.466a3.962,3.962,0,0,0-1.248.461c-.044.025-.087.051-.132.079a3.953,3.953,0,0,0-.388.277c-.063.051-.125.1-.184.156-.1.09-.191.186-.28.284-.059.065-.118.13-.173.2a4,4,0,0,0-.576,1c-.025.062-.049.125-.071.189a3.913,3.913,0,0,0-.158.583v0a4.035,4.035,0,0,0-.063.708V47h4a1.006,1.006,0,0,1,.555.168L30.3,51H49.7l5.748-3.832A1.006,1.006,0,0,1,56,47h4V44.162A4.012,4.012,0,0,0,59.941,43.492Z"/><path d="M30,53a1.006,1.006,0,0,1-.555-.168L23.7,49H20v7h3a1.006,1.006,0,0,1,.555.168L26.3,58H32l20.1,2.005L58,60a2,2,0,0,0,2-2V53H30Z"/><path d="M17.448,37.594a3.542,3.542,0,0,0-3.893,0,3.492,3.492,0,1,0,4.619,5.133l.012-.059a.716.716,0,0,1,.023-.1c.028-.1.077-.2.11-.293.042-.127.089-.251.14-.374.038-.092.06-.184.1-.277.079-.164.158-.311.238-.451l0-.01c.053-.093.109-.174.163-.257A3.571,3.571,0,0,0,19,40.5,3.469,3.469,0,0,0,17.448,37.594Z"/><rect x="12" y="52" width="6" height="2"/><path d="M21.134,38.906c.094-.051.18-.119.276-.164l.447-.192a3.5,3.5,0,0,1,.549-.175,3.424,3.424,0,0,1,.462-.11,15.6,15.6,0,0,1,.081-3.578,4.84,4.84,0,0,0,.042-.926A5.079,5.079,0,0,0,19,29.151v7.113a5.445,5.445,0,0,1,1.815,2.825C20.919,39.024,21.025,38.965,21.134,38.906Z"/></g><text x="0" y="79" fill="#000000" font-size="5px" font-weight="bold" font-family="'Helvetica Neue', Helvetica, Arial-Unicode, Arial, Sans-serif">Created by monkik</text><text x="0" y="84" fill="#000000" font-size="5px" font-weight="bold" font-family="'Helvetica Neue', Helvetica, Arial-Unicode, Arial, Sans-serif">from the Noun Project</text></svg>